<svg viewBox="0 0 26 24" fill="none" xmlns="http://www.w3.org/2000/svg">
	<path fill-rule="evenodd" clip-rule="evenodd"
		d="M12.7072 14.3723C10.9354 14.3723 9.49922 12.902 9.49922 11.0873C9.49922 9.273 10.9351 7.80236 12.7069 7.80236C14.4785 7.80236 15.9147 9.273 15.9147 11.087C15.9147 12.9017 14.4791 14.3723 12.7072 14.3723ZM25.2504 10.4849L19.9715 1.11977C19.9715 1.11977 19.6905 0.551117 19.1955 0.257962C18.7011 -0.0354969 18.0736 0.00194652 18.0736 0.00194652L7.5178 0.00133768C7.5178 0.00133768 6.89647 -0.0339748 6.40089 0.258267C5.90591 0.550508 5.6217 1.12708 5.6217 1.12708L0.34099 10.4895C0.34099 10.4895 0.000595341 11.0228 7.66641e-07 11.6082C-0.000593808 12.1936 0.344855 12.7315 0.344855 12.7315L5.62289 22.0933C5.62289 22.0933 5.90353 22.6619 6.39821 22.9551C6.8929 23.2485 7.52345 23.212 7.52345 23.212H9.21263V18.8817C6.22638 17.4886 4.14924 14.4076 4.14924 10.828C4.14924 7.57678 5.8628 4.73687 8.41442 3.19925L9.08123 4.25345C9.04704 4.30733 9.02802 4.34508 9.02802 4.34508L6.2686 9.23769C6.2686 9.23769 6.09022 9.51623 6.09022 9.82217C6.09022 10.1281 6.27038 10.4094 6.27038 10.4094L9.02831 15.3014C9.02831 15.3014 9.17488 15.5988 9.43352 15.7519C9.69216 15.9054 10.0216 15.8862 10.0216 15.8862L15.5395 15.8871C15.5395 15.8871 15.8641 15.9054 16.1231 15.7525C16.3817 15.6003 16.5295 15.2993 16.5295 15.2993L19.2877 10.4073C19.2877 10.4073 19.4658 10.1287 19.4661 9.82278C19.4661 9.51654 19.2859 9.23525 19.2859 9.23525L16.5271 4.34112C16.5271 4.34112 16.4792 4.24675 16.3924 4.13716L17.0509 3.13289C19.6647 4.65437 21.4285 7.52929 21.4285 10.828C21.4285 14.4508 19.3011 17.5635 16.2563 18.9316V23.2129H18.0816C18.0816 23.2129 18.7029 23.2485 19.1985 22.9563C19.6941 22.6641 19.9762 22.0887 19.9762 22.0887L25.2542 12.7275C25.2542 12.7275 25.5949 12.1942 25.5952 11.6088C25.5961 11.0237 25.2504 10.4849 25.2504 10.4849Z"
		fill="#2755DE" />
</svg>
